<svg width="82" height="13" viewBox="0 0 82 13" fill="none" xmlns="http://www.w3.org/2000/svg">
<path d="M6.39431 0.872679C6.57988 0.509054 7.09945 0.509054 7.28502 0.87268L8.87989 3.99782C8.95254 4.14018 9.08887 4.23923 9.24671 4.26434L12.7117 4.81542C13.1149 4.87954 13.2755 5.37369 12.987 5.66254L10.5076 8.14507C10.3947 8.25816 10.3426 8.41842 10.3675 8.5763L10.9142 12.042C10.9778 12.4453 10.5574 12.7507 10.1936 12.5656L7.06637 10.9747C6.92392 10.9023 6.75541 10.9023 6.61296 10.9747L3.48577 12.5656C3.12191 12.7507 2.70156 12.4453 2.76517 12.042L3.31181 8.5763C3.33671 8.41842 3.28463 8.25816 3.17169 8.14507L0.692344 5.66254C0.40386 5.37369 0.564418 4.87954 0.967591 4.81542L4.43262 4.26434C4.59046 4.23923 4.72679 4.14018 4.79944 3.99782L6.39431 0.872679Z" fill="url(#paint0_linear_933_314)"/>
<path d="M23.4745 0.872679C23.66 0.509054 24.1796 0.509054 24.3652 0.87268L25.9601 3.99782C26.0327 4.14018 26.169 4.23923 26.3269 4.26434L29.7919 4.81542C30.1951 4.87954 30.3556 5.37369 30.0672 5.66254L27.5878 8.14507C27.4749 8.25816 27.4228 8.41842 27.4477 8.5763L27.9943 12.042C28.0579 12.4453 27.6376 12.7507 27.2737 12.5656L24.1465 10.9747C24.0041 10.9023 23.8356 10.9023 23.6931 10.9747L20.5659 12.5656C20.2021 12.7507 19.7817 12.4453 19.8453 12.042L20.392 8.5763C20.4169 8.41842 20.3648 8.25816 20.2519 8.14507L17.7725 5.66254C17.484 5.37369 17.6446 4.87954 18.0478 4.81542L21.5128 4.26434C21.6706 4.23923 21.807 4.14018 21.8796 3.99782L23.4745 0.872679Z" fill="url(#paint1_linear_933_314)"/>
<path d="M40.5546 0.87268C40.7402 0.509054 41.2598 0.509055 41.4454 0.87268L43.0402 3.99782C43.1129 4.14018 43.2492 4.23923 43.407 4.26434L46.8721 4.81542C47.2752 4.87954 47.4358 5.37369 47.1473 5.66254L44.668 8.14507C44.555 8.25816 44.503 8.41842 44.5279 8.5763L45.0745 12.042C45.1381 12.4453 44.7178 12.7507 44.3539 12.5656L41.2267 10.9747C41.0843 10.9023 40.9157 10.9023 40.7733 10.9747L37.6461 12.5656C37.2822 12.7507 36.8619 12.4453 36.9255 12.042L37.4721 8.5763C37.497 8.41842 37.445 8.25816 37.332 8.14507L34.8527 5.66254C34.5642 5.37369 34.7248 4.87954 35.1279 4.81542L38.593 4.26434C38.7508 4.23923 38.8871 4.14018 38.9598 3.99782L40.5546 0.87268Z" fill="url(#paint2_linear_933_314)"/>
<path d="M57.6348 0.87268C57.8204 0.509054 58.34 0.509055 58.5255 0.87268L60.1204 3.99782C60.193 4.14018 60.3294 4.23923 60.4872 4.26434L63.9522 4.81542C64.3554 4.87954 64.516 5.37369 64.2275 5.66254L61.7481 8.14507C61.6352 8.25816 61.5831 8.41842 61.608 8.5763L62.1547 12.042C62.2183 12.4453 61.7979 12.7507 61.4341 12.5656L58.3069 10.9747C58.1644 10.9023 57.9959 10.9023 57.8535 10.9747L54.7263 12.5656C54.3624 12.7507 53.9421 12.4453 54.0057 12.042L54.5523 8.5763C54.5772 8.41842 54.5251 8.25816 54.4122 8.14507L51.9328 5.66254C51.6444 5.37369 51.8049 4.87954 52.2081 4.81542L55.6731 4.26434C55.831 4.23923 55.9673 4.14018 56.0399 3.99782L57.6348 0.87268Z" fill="url(#paint3_linear_933_314)"/>
<path d="M74.715 0.87268C74.9006 0.509054 75.4201 0.509055 75.6057 0.87268L77.2006 3.99782C77.2732 4.14018 77.4095 4.23923 77.5674 4.26434L81.0324 4.81542C81.4356 4.87954 81.5961 5.37369 81.3077 5.66254L78.8283 8.14507C78.7154 8.25816 78.6633 8.41842 78.6882 8.5763L79.2348 12.042C79.2984 12.4453 78.8781 12.7507 78.5142 12.5656L75.387 10.9747C75.2446 10.9023 75.0761 10.9023 74.9336 10.9747L71.8064 12.5656C71.4426 12.7507 71.0222 12.4453 71.0858 12.042L71.6325 8.5763C71.6574 8.41842 71.6053 8.25816 71.4924 8.14507L69.013 5.66254C68.7245 5.37369 68.8851 4.87954 69.2883 4.81542L72.7533 4.26434C72.9111 4.23923 73.0475 4.14018 73.1201 3.99782L74.715 0.87268Z" fill="url(#paint4_linear_933_314)"/>
<defs>
<linearGradient id="paint0_linear_933_314" x1="79.5" y1="9" x2="71.5114" y2="32.0605" gradientUnits="userSpaceOnUse">
<stop stop-color="#FFD968"/>
<stop offset="1" stop-color="#E47D57"/>
</linearGradient>
<linearGradient id="paint1_linear_933_314" x1="79.5" y1="9" x2="71.5114" y2="32.0605" gradientUnits="userSpaceOnUse">
<stop stop-color="#FFD968"/>
<stop offset="1" stop-color="#E47D57"/>
</linearGradient>
<linearGradient id="paint2_linear_933_314" x1="79.5" y1="9" x2="71.5114" y2="32.0605" gradientUnits="userSpaceOnUse">
<stop stop-color="#FFD968"/>
<stop offset="1" stop-color="#E47D57"/>
</linearGradient>
<linearGradient id="paint3_linear_933_314" x1="79.5" y1="9" x2="71.5114" y2="32.0605" gradientUnits="userSpaceOnUse">
<stop stop-color="#FFD968"/>
<stop offset="1" stop-color="#E47D57"/>
</linearGradient>
<linearGradient id="paint4_linear_933_314" x1="79.5" y1="9" x2="71.5114" y2="32.0605" gradientUnits="userSpaceOnUse">
<stop stop-color="#FFD968"/>
<stop offset="1" stop-color="#E47D57"/>
</linearGradient>
</defs>
</svg>
