<svg xmlns="http://www.w3.org/2000/svg" width="79" height="83" viewBox="0 0 79 83" fill="none"><path d="M62.1298 29.9576C71.9761 44.6337 76.9063 54.3639 62.2302 64.2102C47.5541 74.0565 27.6747 70.1412 17.8284 55.4651C7.98203 40.789 11.8974 20.9096 26.5735 11.0632C49.5573 -1.34624 52.2835 15.2815 62.1298 29.9576Z" fill="url(#paint0_linear_572_2)" fill-opacity="0.07"></path><circle cx="57.5" cy="11.5" r="2.5" fill="url(#paint1_linear_572_2)"></circle><path d="M28.7742 29.5484C30.8587 29.5484 32.5484 27.8587 32.5484 25.7742C32.5484 23.6898 30.8587 22 28.7742 22C26.6898 22 25 23.6898 25 25.7742C25 27.8587 26.6898 29.5484 28.7742 29.5484Z" stroke="url(#paint2_linear_572_2)" stroke-width="1.8" stroke-linecap="round" stroke-linejoin="round"></path><path d="M28.7744 57.9994C30.8588 57.9994 32.5486 56.3097 32.5486 54.2252C32.5486 52.1408 30.8588 50.451 28.7744 50.451C26.6899 50.451 25.0001 52.1408 25.0001 54.2252C25.0001 56.3097 26.6899 57.9994 28.7744 57.9994Z" stroke="url(#paint3_linear_572_2)" stroke-width="1.8" stroke-linecap="round" stroke-linejoin="round"></path><path d="M28.7744 43.7739C30.8588 43.7739 32.5486 42.0842 32.5486 39.9997C32.5486 37.9153 30.8588 36.2255 28.7744 36.2255C26.6899 36.2255 25.0001 37.9153 25.0001 39.9997C25.0001 42.0842 26.6899 43.7739 28.7744 43.7739Z" stroke="url(#paint4_linear_572_2)" stroke-width="1.8" stroke-linecap="round" stroke-linejoin="round"></path><path d="M59.2588 22.0001H38.3551C37.3932 22.0001 36.6134 22.7799 36.6134 23.7418V27.8069C36.6134 28.7688 37.3932 29.5486 38.3551 29.5486H59.2588C60.2206 29.5486 61.0004 28.7688 61.0004 27.8069V23.7418C61.0004 22.7799 60.2206 22.0001 59.2588 22.0001Z" stroke="url(#paint5_linear_572_2)" stroke-width="1.8" stroke-linecap="round" stroke-linejoin="round"></path><path d="M59.2588 50.4508H38.3551C37.3932 50.4508 36.6134 51.2306 36.6134 52.1925V56.2576C36.6134 57.2195 37.3932 57.9993 38.3551 57.9993H59.2588C60.2206 57.9993 61.0004 57.2195 61.0004 56.2576V52.1925C61.0004 51.2306 60.2206 50.4508 59.2588 50.4508Z" stroke="url(#paint6_linear_572_2)" stroke-width="1.8" stroke-linecap="round" stroke-linejoin="round"></path><path d="M59.2588 36.2257H38.3551C37.3932 36.2257 36.6134 37.0055 36.6134 37.9674V42.0325C36.6134 42.9944 37.3932 43.7742 38.3551 43.7742H59.2588C60.2206 43.7742 61.0004 42.9944 61.0004 42.0325V37.9674C61.0004 37.0055 60.2206 36.2257 59.2588 36.2257Z" stroke="url(#paint7_linear_572_2)" stroke-width="1.8" stroke-linecap="round" stroke-linejoin="round"></path><defs><linearGradient id="paint0_linear_572_2" x1="21.5318" y1="14.4458" x2="57.1885" y2="67.5927" gradientUnits="userSpaceOnUse"><stop stop-color="#57EA57"></stop><stop offset="1" stop-color="#17B5BE"></stop></linearGradient><linearGradient id="paint1_linear_572_2" x1="59" y1="10" x2="56" y2="13.5" gradientUnits="userSpaceOnUse"><stop stop-color="#FFD968"></stop><stop offset="1" stop-color="#E47D57"></stop></linearGradient><linearGradient id="paint2_linear_572_2" x1="43.0002" y1="22" x2="43.0002" y2="57.9994" gradientUnits="userSpaceOnUse"><stop stop-color="#57EA57"></stop><stop offset="1" stop-color="#17B5BE"></stop></linearGradient><linearGradient id="paint3_linear_572_2" x1="43.0002" y1="22" x2="43.0002" y2="57.9994" gradientUnits="userSpaceOnUse"><stop stop-color="#57EA57"></stop><stop offset="1" stop-color="#17B5BE"></stop></linearGradient><linearGradient id="paint4_linear_572_2" x1="43.0002" y1="22" x2="43.0002" y2="57.9994" gradientUnits="userSpaceOnUse"><stop stop-color="#57EA57"></stop><stop offset="1" stop-color="#17B5BE"></stop></linearGradient><linearGradient id="paint5_linear_572_2" x1="43.0002" y1="22" x2="43.0002" y2="57.9994" gradientUnits="userSpaceOnUse"><stop stop-color="#57EA57"></stop><stop offset="1" stop-color="#17B5BE"></stop></linearGradient><linearGradient id="paint6_linear_572_2" x1="43.0002" y1="22" x2="43.0002" y2="57.9994" gradientUnits="userSpaceOnUse"><stop stop-color="#57EA57"></stop><stop offset="1" stop-color="#17B5BE"></stop></linearGradient><linearGradient id="paint7_linear_572_2" x1="43.0002" y1="22" x2="43.0002" y2="57.9994" gradientUnits="userSpaceOnUse"><stop stop-color="#57EA57"></stop><stop offset="1" stop-color="#17B5BE"></stop></linearGradient></defs></svg>